<svg width="32" height="32" fill="none" xmlns="http://www.w3.org/2000/svg"><path fill-rule="evenodd" clip-rule="evenodd" d="M30.7 10.2l-1.5 4.2 2.6 3.7c.3.3.2.9-.2 1.2L28.1 22l.3 4.4c0 .4-.3.9-.8.9l-4.4.3-2.1 3.9c-.2.3-.5.5-.8.5-.1 0-.3 0-.4-.2L16 29.7l-3.9 2.1c-.4.2-1 0-1.2-.4l-2.1-3.9-4.4-.3c-.5 0-.8-.4-.8-.9l.3-4.4-3.5-2.7c-.4-.3-.5-.8-.2-1.2l2.6-3.6-1.5-4.2c-.2-.4 0-.9.5-1.1l4.1-1.6 1-4.4c.1-.4.6-.7 1-.6l4.5.8L15.5.2a1 1 0 011.2 0l3.1 3.1 4.3-.9c.4-.1.9.2 1 .7l1 4.4 4.1 1.6c.4.1.7.6.5 1.1zM24.3 16a8.3 8.3 0 11-16.6 0 8.3 8.3 0 0116.6 0z" fill="#D67E85"/><path d="M29.2 14.4l1.5-4.2c.2-.5-.1-1-.5-1.1l-4.1-1.6-1-4.4c-.1-.5-.6-.8-1-.7l-4.3.9L16.7.2a1 1 0 00-1.2 0l-3.1 3.1-4.5-.8a.9.9 0 00-1 .6l-1 4.4-4.1 1.6c-.5.2-.7.7-.5 1.1l1.5 4.2L.2 18c-.3.4-.2.9.2 1.2l3.5 2.7-.3 4.4c0 .5.3.9.8.9l4.4.3 2.1 3.9c.2.4.8.6 1.2.4l3.9-2.1 3.9 2.1c.1.2.3.2.4.2.3 0 .6-.2.8-.5l2.1-3.9 4.4-.3c.5 0 .8-.5.8-.9l-.3-4.4 3.5-2.7c.4-.3.5-.9.2-1.2l-2.6-3.7zm-2.5 6.4c-.2.2-.4.5-.3.8l.3 4-4 .3c-.3 0-.6.2-.7.5l-2 3.5-3.6-1.9c-.3-.1-.6-.1-.8 0l-3.5 1.9-1.9-3.5c-.1-.3-.4-.4-.7-.5l-4-.3.3-4c0-.3-.1-.6-.3-.8l-3.2-2.4 2.4-3.3c.2-.2.2-.6.1-.8l-1.4-3.8L7 9c.3-.1.5-.3.5-.6l.9-4 3.9.8c.3.1.6 0 .8-.2L16 2.1 18.9 5c.2.2.5.3.8.2l3.9-.8.9 4c0 .2.2.5.5.6l3.8 1.4-1.4 3.8c-.1.3-.1.6.1.8l2.4 3.3-3.2 2.5z" fill="#030303"/><path d="M16 7c-5 0-9.1 4.1-9.1 9.2s4.1 9.2 9.1 9.2 9.1-4.1 9.1-9.2S21 7 16 7zm0 16.3a7.1 7.1 0 01-7.1-7.1C8.9 12.3 12.1 9 16 9c3.9 0 7.1 3.2 7.1 7.1 0 3.9-3.2 7.2-7.1 7.2z" fill="#030303"/><path d="M13.3 14.3c.7 0 1.2-.6 1.2-1.2 0-.7-.5-1.2-1.2-1.2s-1.2.6-1.2 1.2c-.1.6.5 1.2 1.2 1.2zm6.5-1.2l-1.5-1.3-6.2 7.4 1.5 1.3 6.2-7.4zm-1.1 7.4c.7 0 1.2-.6 1.2-1.2 0-.7-.5-1.2-1.2-1.2s-1.2.6-1.2 1.2c-.1.7.5 1.2 1.2 1.2z" fill="#030303"/></svg>