<svg xmlns="http://www.w3.org/2000/svg" height="27" width="36"><path d="M35 3l1 1v1H8V3zM8 8h28v2H8zM24 25h12v2H24zM12 17h10v2H12zM12 21h10v2H12z"/><path d="M20 17h2v10h-2zM24 9h2v18h-2zM36 27h-2V3l2 1zM12 17h2v10h-2zM8 4h2v23H8zM0 3h2v24H0z"/><path d="M9 22.6v-1.5H1.3v-1.5H9v-1.5H1.3v-1.5H9V15H1.3v-1.5H9V12H1.3v-1.6H9V9H1.3V7.5H9V6H1.3V5H0v21h1.3v-.3H9v-1.5H1.3v-1.6zM32.4 0H28.1c-2.3.2-3.3 2.2-3.5 3.4h-5.8V4H36V3a3.7 3.7 0 00-3.6-3zm-5.8 3.4c.2-.6.7-1.3 1.6-1.4h4.1c1 .1 1.4.8 1.6 1.4h-7.3z"/><circle cy="17.5" cx="29.5" r="1.5"/></svg>