<svg xmlns="http://www.w3.org/2000/svg" width="66" height="50"><path fill="none" d="M18.2 21.7l2.7-8.5"/><path d="M19.2 23h-2l2.7-10 2 .3z"/><path fill="none" d="M29.8 21.7l-2.9-8.5"/><path d="M28.8 23l-2.9-9.7 2-.3 3 10z"/><path fill="none" d="M16.3 22.5h15.5"/><path d="M18 21h12l.8 2H17.2z"/><path fill="none" d="M19.9 14h8"/><path d="M19.9 13h8v2h-8z"/><path fill="none" d="M19.4 37h9.9"/><path d="M20.3 36h8v2h-8z"/><path fill="none" d="M24.3 37V26.9"/><path d="M23.3 22h2v15h-2z"/><path fill="none" d="M36.1 37h10.5"/><path d="M36.1 36h10.5v2H36.1z"/><path fill="none" d="M36.7 32.5h9.7"/><path d="M36.1 32h10.3v2H36.1z"/><path fill="none" stroke="#000" stroke-width="2" stroke-miterlimit="10" d="M36.2 37S34 37 34 35s2.4-2 2.4-2M36.2 33S34 33 34 31s2.4-2 2.4-2M36.2 29S34 29 34 27s2.4-2 2.4-2"/><g><path fill="none" d="M36.7 28h9.7"/><path d="M36.1 28h10.3v2H36.1z"/></g><g><path fill="none" d="M36.7 23.5h9.7"/><path d="M36.1 24h10.3v2H36.1z"/></g><path fill="none" stroke="#000" stroke-width="2" stroke-miterlimit="10" d="M46.3 33s2.4 0 2.4 2-2.3 2-2.3 2M46.3 29s2.4 0 2.4 2-2.3 2-2.3 2M46.3 25s2.4 0 2.4 2-2.3 2-2.3 2"/></svg>